<svg xmlns="http://www.w3.org/2000/svg" width="151" height="143" viewBox="0 0 151 143" version="1.1">
	<path d="M 76.071 5.716 C 74.185 6.697, 71.790 8.664, 70.748 10.087 C 68.896 12.616, 67.089 21, 68.397 21 C 68.760 21, 72.667 18.528, 77.078 15.507 C 81.490 12.485, 86.202 9.736, 87.550 9.398 C 90.488 8.661, 90.633 7.877, 88.123 6.309 C 84.547 4.076, 79.685 3.837, 76.071 5.716 M 99.146 8.572 C 93.697 10.038, 89.801 12.271, 84.595 16.911 C 81.491 19.678, 81.936 18.090, 85.399 14.046 L 87.500 11.591 85.357 13.046 C 84.179 13.846, 79.454 17.050, 74.857 20.166 C 70.261 23.282, 63.052 27.687, 58.838 29.955 C 53.915 32.605, 49.858 35.687, 47.488 38.580 L 43.798 43.083 44.954 53.291 C 47.124 72.462, 51.273 85.816, 55.971 88.750 C 58.521 90.343, 60.202 88.143, 63.040 79.500 L 65.339 72.500 67.656 77.500 C 70.487 83.606, 70.622 88.861, 68.077 93.850 C 64.526 100.810, 62.740 109.889, 63.292 118.185 C 63.572 122.412, 64.103 126.357, 64.470 126.951 C 65.404 128.463, 71.218 123.477, 76.213 116.880 C 80.951 110.623, 86.701 99.037, 87.569 94 L 88.171 90.500 85.515 95 C 81.990 100.969, 78.307 104.768, 73.790 107.092 C 68.251 109.941, 68.054 109.400, 73.352 105.890 C 77.582 103.088, 86.615 92.282, 85.587 91.254 C 85.358 91.025, 84.345 91.262, 83.336 91.780 C 80.769 93.097, 73.841 94.066, 74.489 93.018 C 74.783 92.543, 76.480 91.815, 78.261 91.401 L 81.500 90.649 77.500 89.354 L 73.500 88.060 78 88.123 C 87.814 88.260, 87.940 88.134, 81.407 84.701 C 75.221 81.451, 70 77.732, 70 76.576 C 70 75.860, 78.992 80.650, 86.375 85.299 L 91.250 88.369 90.746 97.934 C 89.997 112.151, 84.976 124.981, 76.249 134.975 L 71.500 140.414 75.982 137.948 C 83.589 133.761, 89.749 121.541, 92.504 105.172 L 93.795 97.500 93.897 104.645 C 94.011 112.559, 91.594 121.761, 87.566 128.750 C 86.218 131.088, 85.475 133, 85.913 133 C 87.618 133, 96.791 122.220, 98.051 118.735 L 99.382 115.055 112.441 114.778 L 125.500 114.500 125.810 109.627 L 126.120 104.755 121.310 105.455 C 118.664 105.841, 115.503 106.796, 114.285 107.578 C 111.470 109.386, 110.226 109.369, 108.357 107.500 C 107.532 106.675, 105.652 105.993, 104.179 105.985 C 102.705 105.976, 100.825 105.508, 100 104.943 C 98.931 104.212, 99.867 104.106, 103.259 104.574 C 109.226 105.396, 111 104.091, 111 98.878 L 111 95 104.500 95 C 100.833 95, 98 95.436, 98 96 C 98 98.480, 96.305 96.514, 94.150 91.537 L 91.801 86.109 93.982 79.554 C 95.182 75.949, 96.464 73.008, 96.832 73.018 C 98.067 73.051, 102.234 87.949, 101.813 90.823 C 101.569 92.484, 101.855 93.667, 102.500 93.667 C 103.152 93.667, 103.429 92.470, 103.176 90.746 C 102.771 87.986, 102.865 87.898, 104.877 89.155 C 107.701 90.919, 109.797 89.577, 112.906 84.012 C 115.104 80.079, 115.425 79.860, 116.615 81.488 C 118.082 83.495, 119.503 91.377, 118.647 92.762 C 118.339 93.260, 118.658 93.667, 119.354 93.667 C 121.022 93.667, 119.851 84.547, 117.633 80.257 C 116.229 77.541, 116.211 76.648, 117.478 72.348 C 118.263 69.681, 119.840 63.284, 120.982 58.132 L 123.057 48.764 120.347 45.211 C 118.857 43.257, 118.281 42.024, 119.069 42.471 C 119.856 42.919, 118.267 40.971, 115.538 38.143 C 112.808 35.314, 110.288 33, 109.937 33 C 109.585 33, 109.344 34.237, 109.399 35.750 C 109.479 37.929, 109.941 38.455, 111.626 38.284 C 112.795 38.165, 114.552 38.952, 115.531 40.034 C 116.509 41.115, 116.960 42, 116.533 42 C 116.105 42, 116.239 42.583, 116.831 43.296 C 117.608 44.232, 117.492 45.794, 116.416 48.918 C 115.270 52.244, 115.172 53.991, 115.991 56.473 C 117.135 59.940, 115.377 65.422, 110.693 72.993 L 108.523 76.500 107.880 73.500 C 107.526 71.850, 107.173 67.575, 107.094 64 C 106.913 55.715, 105.560 49.883, 103.463 48.349 C 102.557 47.687, 100.058 46.848, 97.911 46.485 C 92.274 45.533, 89.972 43.258, 89.311 37.990 C 88.746 33.489, 90.233 33.120, 91.287 37.500 C 91.563 38.647, 91.864 37.795, 91.994 35.500 L 92.219 31.500 93.085 35.909 C 93.962 40.377, 97.290 45, 99.629 45 C 100.368 45, 99.921 44.012, 98.572 42.663 C 96.447 40.538, 94 32.744, 94 28.100 C 94 27.109, 92.891 24.212, 91.535 21.663 C 89.239 17.344, 89.210 17.112, 91.101 18.264 C 92.217 18.944, 94.703 22.752, 96.624 26.727 C 99.953 33.614, 103.093 37.876, 101.108 32.814 C 100.609 31.541, 99.702 28.637, 99.093 26.360 C 98.376 23.679, 96.591 20.960, 94.030 18.646 C 91.770 16.604, 90.519 14.797, 91.111 14.431 C 91.681 14.079, 93.299 14.850, 94.705 16.145 C 97.244 18.482, 97.253 18.483, 95.891 16.250 C 95.136 15.013, 94.151 14, 93.700 14 C 93.250 14, 93.160 13.550, 93.500 13 C 94.641 11.154, 96.021 11.975, 97.701 15.500 C 98.619 17.425, 99.962 19, 100.685 19 C 102.230 19, 110 11.472, 110 9.975 C 110 9.180, 105.565 6.752, 104.685 7.066 C 104.583 7.102, 102.091 7.780, 99.146 8.572 M 81 22.643 C 75.144 27.358, 63.897 32.706, 57.173 33.974 C 54.243 34.526, 51.430 35.234, 50.923 35.548 C 49.447 36.460, 49.853 37.815, 51.750 38.311 C 53.230 38.698, 53.192 38.789, 51.500 38.906 C 49.640 39.035, 49.675 39.188, 52 41.085 C 54.107 42.804, 54.185 43.039, 52.500 42.574 C 50.685 42.074, 50.479 42.554, 50.278 47.762 C 50.156 50.918, 49.964 55.075, 49.852 57 C 49.740 58.931, 50.729 62.965, 52.060 66 C 54.447 71.444, 54.478 71.470, 55.117 68.500 C 55.473 66.850, 55.817 63.025, 55.883 60 C 56.044 52.623, 58.540 47.815, 62.838 46.602 C 67.070 45.408, 68.905 42.594, 69.671 36.126 C 70.005 33.307, 70.610 31, 71.014 31 C 71.830 31, 72.953 35.811, 73.086 39.875 L 73.172 42.500 73.989 39.788 C 74.439 38.297, 74.447 35.482, 74.007 33.533 C 73.560 31.547, 73.602 29.746, 74.104 29.436 C 74.597 29.131, 75 29.379, 75 29.986 C 75 32.017, 79.879 36, 82.366 36 C 85.245 36, 90 30.887, 90 27.791 C 90 26.184, 86.439 18.965, 85.668 19.010 C 85.576 19.015, 83.475 20.650, 81 22.643 M 113.194 29.081 C 113.372 29.905, 112.871 30.366, 112 30.180 C 111.175 30.004, 113.611 32.817, 117.414 36.432 C 124.656 43.316, 128.057 44.715, 121.685 38.189 C 119.658 36.114, 118 33.824, 118 33.101 C 118 32.363, 117.364 32.030, 116.551 32.342 C 115.642 32.691, 115.286 32.417, 115.596 31.609 C 115.868 30.900, 115.370 29.722, 114.489 28.991 C 113.146 27.876, 112.937 27.891, 113.194 29.081 M 96.703 32.500 C 97.310 36.824, 100.391 41.018, 102.924 40.970 C 104.195 40.945, 104.141 40.731, 102.646 39.862 C 101.626 39.269, 99.745 36.470, 98.466 33.642 L 96.141 28.500 96.703 32.500 M 80.500 32 C 80.840 32.550, 81.740 33, 82.500 33 C 83.260 33, 84.160 32.550, 84.500 32 C 84.852 31.431, 83.991 31, 82.500 31 C 81.009 31, 80.148 31.431, 80.500 32 M 67 32.783 C 65.328 33.350, 57.897 41, 59.019 41 C 59.410 41, 60.916 40.067, 62.365 38.927 C 66.299 35.833, 65.547 38.312, 61.465 41.896 C 57.323 45.533, 58.235 45.989, 63.102 42.713 C 65.232 41.280, 66.975 38.986, 67.772 36.568 C 69.186 32.277, 69.141 32.056, 67 32.783 M 110 36.441 C 110 37.298, 110.450 38, 111 38 C 111.550 38, 112 37.577, 112 37.059 C 112 36.541, 111.550 35.840, 111 35.500 C 110.450 35.160, 110 35.584, 110 36.441 M 78 38.827 C 78 42.550, 73.028 46.723, 67.626 47.533 C 59.863 48.697, 59.011 49.969, 57.614 62.478 C 56.558 71.929, 56.601 73.983, 57.939 77.702 C 58.789 80.066, 59.740 82, 60.053 82 C 60.366 82, 61.195 79.638, 61.896 76.750 C 64.225 67.158, 63.925 67.634, 65.987 70.256 C 66.993 71.536, 70.061 73.804, 72.803 75.297 C 77.950 78.098, 91 83.308, 91 82.561 C 91 82.330, 87.681 80.308, 83.625 78.069 C 74.065 72.792, 66.546 67.195, 64.607 63.911 C 63.320 61.733, 63.281 60.999, 64.371 59.507 C 66.953 55.976, 76.584 59.467, 86.463 67.513 C 93.651 73.367, 93.626 71.686, 86.427 65.107 C 82.441 61.465, 79.236 59.530, 75.177 58.316 C 71.989 57.362, 70.273 56.449, 71.263 56.233 C 72.233 56.021, 75.197 56.569, 77.849 57.450 C 82.184 58.890, 82.967 58.898, 85.586 57.532 C 87.189 56.696, 89.625 56.048, 91 56.092 L 93.500 56.172 90.942 56.948 C 85.678 58.545, 83.779 60.029, 85.046 61.555 C 86.048 62.762, 86.580 62.689, 88.657 61.055 C 91.726 58.641, 96.858 57.458, 98.245 58.845 C 98.822 59.422, 99.216 62.730, 99.121 66.197 C 99.014 70.116, 99.646 74.548, 100.791 77.915 L 102.633 83.330 104.681 79.915 C 106.851 76.299, 106.863 77.229, 104.368 56.178 C 103.717 50.688, 101.450 48.444, 95.676 47.579 C 90.590 46.816, 86 42.591, 86 38.673 C 86 36.804, 85.440 36.500, 82 36.500 C 78.479 36.500, 78 36.779, 78 38.827 M 109.629 41.858 C 108.733 42.848, 108 44.354, 108 45.206 C 108 47.338, 110.420 49.160, 112.296 48.440 C 114.798 47.480, 115.144 44.998, 113.132 42.440 C 111.337 40.158, 111.189 40.134, 109.629 41.858 M 109.667 43.667 C 108.290 45.043, 109.073 47, 111 47 C 112.333 47, 113 46.333, 113 45 C 113 43.073, 111.043 42.290, 109.667 43.667 M 122 45.500 C 123.292 46.875, 124.799 48, 125.349 48 C 125.899 48, 125.292 46.875, 124 45.500 C 122.708 44.125, 121.201 43, 120.651 43 C 120.101 43, 120.708 44.125, 122 45.500 M 48.079 46.583 C 48.127 47.748, 48.364 47.985, 48.683 47.188 C 48.972 46.466, 48.936 45.603, 48.604 45.271 C 48.272 44.939, 48.036 45.529, 48.079 46.583 M 118.102 50.050 L 118.204 54.500 119.259 51.207 C 120.029 48.803, 120.002 47.602, 119.157 46.757 C 118.281 45.881, 118.025 46.681, 118.102 50.050 M 89.405 63.250 L 87.500 65.500 89.750 63.595 C 90.987 62.547, 92 61.535, 92 61.345 C 92 60.545, 91.195 61.136, 89.405 63.250 M 69.163 63.282 C 70.078 63.952, 71.653 65.051, 72.663 65.725 C 74.193 66.745, 74.017 66.783, 71.611 65.947 C 68.388 64.828, 67.288 65.188, 69.226 66.728 C 71.540 68.568, 87.145 78.001, 87.829 77.973 C 88.198 77.958, 86.925 76.596, 85 74.946 L 81.500 71.946 87.425 74.495 C 93.094 76.934, 93.267 76.952, 91.425 74.901 C 88.260 71.376, 78.782 65.345, 73.692 63.617 C 68.067 61.707, 66.895 61.620, 69.163 63.282 M 112.121 101.064 C 112.221 104.399, 112.572 106.722, 112.902 106.227 C 113.231 105.731, 115.975 104.915, 119 104.413 L 124.500 103.500 124.807 99.250 L 125.115 95 118.527 95 L 111.939 95 112.121 101.064 M 88.079 98.320 C 87.922 101.930, 81.688 115.203, 77.437 120.979 C 75.047 124.225, 70.709 128.770, 67.796 131.079 C 62.638 135.168, 63.570 135.743, 70.031 132.461 C 74.190 130.348, 81.976 121.304, 84.443 115.720 C 87.165 109.558, 89.487 99.850, 88.708 97.886 C 88.325 96.922, 88.134 97.055, 88.079 98.320 M 110.079 106.583 C 110.127 107.748, 110.364 107.985, 110.683 107.188 C 110.972 106.466, 110.936 105.603, 110.604 105.271 C 110.272 104.939, 110.036 105.529, 110.079 106.583" stroke="none" fill="black" fill-rule="evenodd"/>
</svg>